<svg width="132.885" height="68.014" fill="none" xmlns="http://www.w3.org/2000/svg"><path d="M53.76 67.836c-2.64 0-4.819-.839-6.537-2.517-1.72-1.678-2.579-3.812-2.579-6.403 0-2.59.86-4.724 2.579-6.402 1.718-1.679 3.898-2.517 6.537-2.516a8.482 8.482 0 0 1 4.51 1.234c1.342.823 2.266 1.854 2.772 3.091.155.346.23.722.221 1.1 0 .603-.192 1.084-.575 1.443-.383.359-.884.538-1.503.537a1.827 1.827 0 0 1-1.038-.27c-.269-.177-.53-.488-.77-.928-.472-.848-1.01-1.447-1.613-1.796s-1.369-.526-2.297-.53c-1.353 0-2.445.464-3.275 1.393-.83.929-1.246 2.143-1.247 3.642 0 1.499.416 2.713 1.247 3.641.831.93 1.923 1.393 3.275 1.393.928 0 1.694-.179 2.297-.537.603-.358 1.141-.961 1.613-1.809.244-.44.501-.749.77-.928a1.836 1.836 0 0 1 1.038-.27c.62 0 1.124.18 1.516.539.391.359.587.84.586 1.442a2.986 2.986 0 0 1-.172.954c-.488 1.368-1.404 2.46-2.749 3.275-1.344.815-2.879 1.222-4.606 1.222zM76.942 50.352c.651 0 1.168.207 1.551.622.383.415.575.98.575 1.696v12.712c0 .716-.192 1.282-.575 1.696-.383.414-.9.622-1.55.624-.669 0-1.199-.207-1.59-.622-.392-.415-.588-.98-.587-1.696v-4.696h-7.332v4.694c0 .716-.19 1.282-.574 1.696-.382.414-.9.622-1.554.624-.668 0-1.198-.207-1.59-.622-.392-.415-.588-.98-.586-1.696V52.672c0-.716.195-1.282.586-1.696.391-.414.921-.621 1.59-.622.651 0 1.168.207 1.552.622.384.415.575.98.574 1.696v4.278h7.332v-4.278c0-.716.195-1.282.586-1.696.391-.414.922-.622 1.592-.624zM89.921 67.836c-2.722 0-4.917-.827-6.586-2.48-1.669-1.655-2.504-3.826-2.505-6.513 0-2.557.86-4.671 2.578-6.342 1.72-1.671 3.89-2.505 6.513-2.503 2.606 0 4.773.843 6.501 2.53 1.727 1.686 2.591 3.8 2.591 6.341 0 2.673-.84 4.836-2.518 6.488-1.679 1.653-3.87 2.479-6.574 2.479zm-3.507-5.254c.856.912 2.025 1.368 3.507 1.368 1.482 0 2.648-.452 3.498-1.355.848-.905 1.272-2.148 1.272-3.728 0-1.5-.439-2.705-1.318-3.617-.88-.913-2.029-1.369-3.447-1.369-1.45 0-2.61.452-3.483 1.357-.87.905-1.307 2.106-1.307 3.605-.003 1.58.423 2.827 1.278 3.739zM109.614 67.836c-2.722 0-4.917-.827-6.587-2.48-1.669-1.655-2.504-3.826-2.504-6.513 0-2.557.86-4.671 2.58-6.342 1.717-1.671 3.888-2.505 6.511-2.503 2.607 0 4.774.843 6.501 2.53 1.727 1.686 2.591 3.8 2.59 6.341 0 2.673-.839 4.836-2.517 6.488-1.678 1.653-3.869 2.479-6.574 2.479zm-3.507-5.254c.856.912 2.025 1.368 3.507 1.368 1.482 0 2.648-.452 3.5-1.355.847-.905 1.271-2.148 1.271-3.728 0-1.5-.44-2.705-1.32-3.617-.88-.913-2.029-1.369-3.446-1.369-1.45 0-2.61.452-3.482 1.357-.872.905-1.307 2.106-1.307 3.605-.004 1.58.422 2.827 1.277 3.739zM130.504 67.47h-7.803a2.007 2.007 0 0 1-2.029-2.029V52.563c0-.717.196-1.283.587-1.697.391-.414.921-.622 1.59-.623.651 0 1.168.208 1.551.623.383.416.575.981.575 1.697v10.85h5.53c.653 0 1.183.192 1.591.575a1.91 1.91 0 0 1 .61 1.453c0 .604-.199 1.093-.599 1.466-.399.374-.933.562-1.603.563zM37.02 67.836c-1.858 0-3.507-.342-4.95-1.026-1.441-.685-2.471-1.613-3.09-2.787-.261-.504-.392-.96-.392-1.368a1.901 1.901 0 0 1 .624-1.442c.411-.39.96-.6 1.527-.586.896 0 1.605.424 2.126 1.272.848 1.418 2.25 2.124 4.203 2.12.832 0 1.475-.146 1.931-.44a1.379 1.379 0 0 0 .685-1.221 1.094 1.094 0 0 0-.22-.697c-.147-.187-.416-.35-.806-.488a8.903 8.903 0 0 0-.966-.294c-.253-.057-.705-.15-1.356-.281l-.367-.073a38.33 38.33 0 0 1-1.05-.212c-.196-.045-.538-.119-1.027-.232a9.799 9.799 0 0 1-1.06-.294c-.22-.081-.534-.207-.941-.378a3.706 3.706 0 0 1-.905-.502 19.699 19.699 0 0 1-.72-.636 2.577 2.577 0 0 1-.624-.818 5.945 5.945 0 0 1-.341-1.003c-.1-.404-.15-.818-.148-1.234 0-1.515.636-2.765 1.909-3.751 1.272-.986 2.883-1.475 4.834-1.467a9.703 9.703 0 0 1 4.093.868c1.263.578 2.171 1.323 2.725 2.236.213.355.33.758.342 1.172a1.813 1.813 0 0 1-.586 1.378 2.06 2.06 0 0 1-1.466.55c-.588 0-1.142-.26-1.663-.78-1.092-1.109-2.29-1.663-3.592-1.663-.749 0-1.356.135-1.82.404-.466.27-.698.623-.697 1.06 0 .44.293.775.88 1.002.586.227 1.466.44 2.64.636.619.115 1.078.204 1.378.268.3.065.743.179 1.332.343.465.12.919.28 1.356.477.39.195.77.411 1.137.646.386.229.722.532.989.893.244.365.441.76.587 1.174.175.49.262 1.006.257 1.526 0 1.663-.628 3.019-1.882 4.07-1.255 1.05-2.883 1.576-4.886 1.578z" fill="#ef5b81" stroke="#ef5b81" stroke-width=".355" stroke-miterlimit="10"/><path d="M34.025 46.037c-.374.405-.885.607-1.536.606-.65 0-1.165-.202-1.546-.606-.381-.405-.572-.956-.572-1.654V32.27c0-1.602.794-2.403 2.38-2.404h9.829c.65 0 1.167.177 1.547.53.38.354.57.834.571 1.44 0 .603-.186 1.08-.559 1.428-.372.35-.892.524-1.56.524h-8.02v3.383h6.855c1.333 0 2 .619 2 1.856 0 1.222-.667 1.832-2 1.832h-6.83v3.52c0 .702-.186 1.255-.56 1.659z" fill="#ef5b81"/><path d="M32.49 46.948c-.735 0-1.33-.237-1.769-.703-.439-.467-.654-1.088-.654-1.862V32.27c0-1.77.929-2.707 2.684-2.707h9.83c.726 0 1.317.212 1.755.617.437.405.666.975.666 1.662 0 .687-.22 1.242-.655 1.65-.434.408-1.024.604-1.767.604h-7.716v2.772h6.55c1.908 0 2.304 1.174 2.304 2.16 0 .986-.4 2.136-2.304 2.136h-6.526v3.216c0 .773-.212 1.398-.636 1.86-.435.472-1.027.709-1.762.709zm.261-16.775c-1.416 0-2.075.667-2.075 2.099v12.107c0 .623.159 1.096.488 1.446.33.35.757.51 1.326.51.568 0 .995-.165 1.31-.508.317-.342.48-.824.48-1.448v-3.817h7.134c1.172 0 1.696-.471 1.696-1.528 0-1.074-.523-1.553-1.696-1.553h-7.157v-3.987h8.323c.592 0 1.034-.145 1.352-.442.318-.297.463-.686.463-1.206 0-.52-.156-.918-.476-1.218-.32-.3-.763-.455-1.339-.455zM53.909 46.882c-2.46 0-4.372-.65-5.737-1.952-1.364-1.301-2.046-3.118-2.046-5.45v-7.472c0-.698.19-1.25.572-1.655.38-.405.896-.606 1.546-.604.637 0 1.14.202 1.511.606.371.404.558.956.56 1.655v7.33c0 1.142.297 2.046.893 2.713.595.666 1.495 1 2.7 1 1.206 0 2.111-.334 2.713-1 .603-.667.905-1.57.905-2.713v-7.332c0-.698.19-1.25.571-1.655.381-.405.897-.606 1.547-.604.636 0 1.14.202 1.511.606.371.404.557.956.56 1.655v7.472c0 2.332-.69 4.15-2.07 5.45-1.38 1.301-3.293 1.951-5.736 1.95z" fill="#ef5b81"/><path d="M53.909 47.186c-2.529 0-4.53-.684-5.946-2.036-1.416-1.352-2.141-3.261-2.141-5.67v-7.472c0-.775.22-1.401.654-1.862.434-.462 1.034-.703 1.768-.703.735 0 1.303.237 1.735.705.431.467.636 1.086.636 1.86v7.33c0 1.06.274 1.908.816 2.51.542.603 1.365.898 2.475.898s1.947-.302 2.486-.9c.54-.598.832-1.449.832-2.508v-7.33c0-.776.22-1.401.654-1.862.433-.462 1.033-.703 1.768-.703.735 0 1.303.237 1.734.705.432.467.636 1.086.636 1.86v7.472c0 2.409-.728 4.317-2.165 5.672-1.438 1.355-3.43 2.034-5.942 2.034zm-5.665-17.135c-.568 0-1.001.167-1.326.511-.324.345-.488.822-.488 1.446v7.472c0 2.236.657 3.996 1.952 5.23 1.296 1.236 3.16 1.868 5.527 1.868 2.351 0 4.21-.629 5.526-1.868 1.316-1.24 1.975-2.995 1.975-5.23v-7.472c0-.616-.16-1.103-.478-1.448-.317-.345-.742-.509-1.288-.509-.568 0-1.002.167-1.326.511-.325.345-.488.822-.488 1.446v7.33c0 1.214-.33 2.196-.984 2.917-.653.72-1.648 1.099-2.937 1.099-1.29 0-2.276-.37-2.928-1.1-.652-.731-.966-1.702-.966-2.916v-7.33c0-.625-.157-1.1-.478-1.448-.321-.349-.741-.509-1.293-.509zM65.141 29.866h11.71c.666 0 1.19.176 1.57.53.381.353.572.833.572 1.44 0 .618-.187 1.099-.56 1.44-.373.341-.9.512-1.583.511h-3.736v10.592c0 .698-.186 1.25-.56 1.654-.373.404-.876.606-1.51.606-.65 0-1.167-.202-1.547-.606-.38-.404-.57-.956-.57-1.654V33.788H65.14c-.666 0-1.185-.174-1.559-.524-.373-.349-.559-.825-.559-1.428 0-.602.19-1.082.571-1.44.381-.357.897-.534 1.547-.53z" fill="#ef5b81"/><path d="M71.044 46.948c-.735 0-1.33-.237-1.769-.703-.439-.467-.654-1.087-.654-1.862V34.096h-3.479c-.742 0-1.338-.204-1.767-.607-.43-.403-.656-.961-.656-1.65 0-.687.225-1.245.667-1.66.442-.416 1.027-.618 1.756-.618H76.85c.742 0 1.342.212 1.78.617.436.405.666.975.666 1.662 0 .705-.222 1.264-.659 1.664-.436.4-1.029.592-1.787.592h-3.433v10.283c0 .773-.212 1.398-.636 1.86-.424.46-1.018.709-1.737.709zm-5.902-16.775c-.577 0-1.015.148-1.34.453-.326.304-.475.698-.475 1.218s.151.915.463 1.206c.312.292.768.442 1.352.442h4.087V44.38c0 .623.16 1.096.488 1.446.33.35.758.511 1.327.511.55 0 .972-.166 1.287-.509.315-.342.477-.82.477-1.448v-10.89h4.04c.601 0 1.06-.146 1.378-.432.318-.287.461-.682.461-1.216 0-.535-.156-.918-.475-1.219-.319-.3-.77-.452-1.363-.452zM88.083 46.882c-2.459 0-4.37-.65-5.736-1.952-1.365-1.3-2.047-3.118-2.046-5.45v-7.472c0-.698.19-1.25.571-1.655.381-.405.897-.607 1.547-.606.636 0 1.14.202 1.511.606.371.405.557.956.56 1.655v7.33c0 1.142.297 2.046.892 2.713.595.666 1.496 1 2.701 1 1.206 0 2.11-.334 2.713-1 .603-.667.905-1.57.905-2.713v-7.33c0-.698.19-1.25.57-1.655.38-.405.896-.607 1.548-.606.636 0 1.14.202 1.511.606.371.405.557.956.56 1.655v7.472c0 2.332-.69 4.15-2.07 5.45-1.38 1.301-3.293 1.952-5.737 1.952z" fill="#ef5b81"/><path d="M88.083 47.186c-2.529 0-4.528-.684-5.945-2.036-1.416-1.352-2.14-3.261-2.14-5.67v-7.472c0-.775.22-1.401.653-1.862.433-.462 1.033-.703 1.768-.703.735 0 1.303.237 1.735.705.431.467.636 1.086.636 1.86v7.33c0 1.06.274 1.908.815 2.51.541.603 1.365.898 2.475.898s1.948-.302 2.487-.9c.54-.598.826-1.449.826-2.508v-7.33c0-.776.221-1.402.654-1.862.434-.46 1.034-.703 1.77-.703.733 0 1.302.237 1.733.705.432.467.636 1.086.636 1.86v7.472c0 2.409-.728 4.317-2.166 5.672-1.437 1.355-3.425 2.034-5.937 2.034zM82.42 30.051c-.568 0-1.002.167-1.326.511-.325.345-.489.822-.489 1.446v7.472c0 2.236.657 3.996 1.953 5.23 1.295 1.236 3.16 1.868 5.526 1.868 2.368 0 4.211-.629 5.527-1.868 1.316-1.24 1.975-2.995 1.975-5.23v-7.472c0-.616-.16-1.103-.479-1.448-.318-.345-.737-.509-1.287-.509-.568 0-1.002.167-1.326.511-.325.345-.489.822-.489 1.446v7.33c0 1.214-.33 2.196-.983 2.917-.652.72-1.648 1.099-2.938 1.099-1.289 0-2.276-.37-2.928-1.1-.652-.731-.97-1.702-.97-2.916v-7.33c0-.625-.157-1.1-.478-1.448-.32-.349-.738-.509-1.288-.509zM111.168 40.504l2.475 2.736c.46.524.69 1.054.69 1.59a1.698 1.698 0 0 1-.559 1.298 1.984 1.984 0 0 1-1.392.511c-.57 0-1.079-.23-1.523-.69l-4.713-5.02h-3.336v3.45c0 .698-.186 1.25-.559 1.654-.372.404-.876.606-1.512.606-.65 0-1.166-.202-1.546-.606-.38-.404-.57-.956-.572-1.654v-12.11c0-1.602.794-2.403 2.38-2.404h7.521c1.856 0 3.3.485 4.332 1.453 1.032.968 1.547 2.324 1.547 4.069.002 2.602-1.075 4.308-3.233 5.117zm-8.358-6.855v3.499h5.498c.586 0 1.047-.155 1.378-.464.331-.308.5-.742.5-1.297 0-1.158-.627-1.737-1.88-1.738z" fill="#ef5b81"/><path d="M112.382 46.948c-.655 0-1.24-.264-1.742-.784l-4.625-4.928h-2.896v3.143c0 .773-.212 1.398-.636 1.86-.425.46-1.016.704-1.736.704s-1.329-.232-1.77-.698c-.444-.467-.655-1.087-.655-1.862V32.27c0-1.77.928-2.707 2.684-2.707h7.52c1.927 0 3.454.515 4.54 1.533 1.086 1.018 1.642 2.468 1.642 4.292 0 2.561-1.017 4.32-3.026 5.233l2.187 2.417c.511.582.768 1.185.768 1.802a1.985 1.985 0 0 1-.658 1.521 2.288 2.288 0 0 1-1.597.588zm-9.87-6.32h3.766l4.802 5.117c.385.4.811.595 1.302.595.437.016.863-.14 1.186-.432a1.38 1.38 0 0 0 .462-1.073c0-.46-.207-.93-.615-1.394l-2.77-3.065.416-.157c2.045-.767 3.04-2.347 3.04-4.832 0-1.65-.488-2.944-1.45-3.848-.963-.903-2.357-1.366-4.125-1.366h-7.518c-1.417 0-2.076.667-2.076 2.099v12.107c0 .623.16 1.096.49 1.446.327.35.756.51 1.324.51.551 0 .972-.165 1.288-.508.316-.342.48-.824.48-1.448zm5.8-3.18h-5.8v-4.102h5.8c1.803 0 2.184 1.11 2.184 2.04 0 .642-.2 1.153-.597 1.52-.396.369-.923.546-1.587.546zm-5.194-.608h5.194c.512 0 .896-.125 1.174-.383.278-.257.403-.603.403-1.075 0-.99-.487-1.433-1.577-1.433h-5.194zM128.803 46.525h-9.733c-1.603 0-2.405-.801-2.405-2.404V32.27c0-1.602.793-2.403 2.38-2.404h9.71c.651 0 1.167.177 1.547.53.38.354.571.834.571 1.44 0 .603-.186 1.08-.559 1.428-.374.35-.893.524-1.559.524h-7.9v2.523h7.043c1.333 0 2 .619 2 1.856 0 1.238-.667 1.86-2 1.866h-7.044v2.566h7.951c.651 0 1.166.178 1.547.535.38.357.57.837.571 1.44 0 .604-.186 1.08-.56 1.428-.373.348-.893.523-1.56.524z" fill="#ef5b81"/><path d="M128.803 46.829h-9.733c-1.772 0-2.708-.936-2.708-2.708V32.27c0-1.77.928-2.707 2.683-2.707h9.71c.727 0 1.318.212 1.755.617.436.405.668.975.668 1.662 0 .687-.22 1.243-.657 1.65-.435.407-1.023.606-1.766.606h-7.597v1.914h6.74c1.903 0 2.303 1.175 2.303 2.16 0 .987-.4 2.16-2.303 2.16h-6.74v1.964h7.645c.727 0 1.318.212 1.754.617.437.405.668.974.668 1.66 0 .688-.22 1.243-.656 1.65-.436.408-1.023.607-1.766.607zm-9.754-16.66c-1.416 0-2.075.668-2.075 2.1V44.12c0 1.433.666 2.1 2.1 2.1h9.733c.592 0 1.034-.145 1.351-.442.317-.296.463-.686.463-1.206 0-.52-.155-.918-.475-1.218-.32-.3-.763-.453-1.339-.453h-8.252v-3.18h7.348c1.172 0 1.696-.48 1.696-1.552 0-1.073-.523-1.553-1.696-1.553h-7.348v-3.128h8.204c.592 0 1.034-.145 1.352-.442.318-.297.463-.686.463-1.206 0-.521-.156-.919-.476-1.219-.32-.3-.763-.452-1.339-.452z" fill="#ef5b81"/><path d="M25.202 24.57V.632A.633.633 0 0 0 24.57 0H.633A.633.633 0 0 0 0 .633v23.936c0 .35.283.633.633.633h23.936c.35 0 .633-.283.633-.633z" fill="#813589"/><path d="M16.849 9.93c.796.328 1.483.785 2.054 1.408a5.525 5.525 0 0 1 1.435 3.068c.14 1.042.068 2.058-.414 3.01-.74 1.457-1.827 2.539-3.419 3.03-1.101.34-2.212.644-3.321.962l-2.152.62c-.97.279-1.853-.193-2.136-1.16A1548.79 1548.79 0 0 1 6.87 13.86L4.875 6.958c-.273-.945.219-1.848 1.163-2.122 1.797-.521 3.593-1.042 5.39-1.561 1.153-.335 2.266-.183 3.334.316 1.53.716 2.312 1.984 2.557 3.613.138.917-.031 1.796-.432 2.632-.014.024-.023.053-.038.094zm-1.686 9.842c.316-.09.632-.177.948-.268 2.158-.628 3.565-2.845 3.21-5.056-.308-1.921-1.705-3.388-3.613-3.79-.201-.042-.405-.067-.623-.103.045-.048.076-.084.11-.116.73-.701 1.117-1.56 1.147-2.568.028-.928-.286-1.75-.857-2.474-.744-.942-1.72-1.396-2.917-1.301-.44.035-.877.167-1.306.289-1.609.455-3.216.92-4.82 1.393-.477.14-.7.63-.517 1.1.011.081.027.162.046.242 1.28 4.435 2.56 8.87 3.842 13.304.143.493.579.738 1.073.598.43-.121.861-.244 1.291-.37.995-.292 1.99-.585 2.986-.88z" fill="#fcfbfc"/><path d="M15.163 19.772c-.996.295-1.993.588-2.99.88-.428.126-.858.25-1.29.37-.494.14-.93-.105-1.073-.598L5.97 7.12c-.02-.08-.035-.16-.046-.241.054-.04.102-.098.161-.116.488-.151.978-.298 1.469-.44.812-.234 1.624-.468 2.438-.692.35-.095.702-.204 1.06-.237a3.15 3.15 0 0 1 2.131.563c.572.395.97.925 1.257 1.558.291.64.37 1.305.28 1.986-.097.732-.43 1.367-.925 1.914-.073.08-.168.139-.276.227.336.043.612.055.876.118a4.188 4.188 0 0 1 1.543.699 4.25 4.25 0 0 1 1.137 1.217c.326.537.546 1.115.598 1.742.08.957-.093 1.864-.61 2.688a4.02 4.02 0 0 1-1.287 1.309c-.202.124-.408.238-.613.356z" fill="#803588"/><path d="M15.163 19.772c.204-.118.41-.232.61-.356a3.997 3.997 0 0 0 1.288-1.309c.516-.824.688-1.73.609-2.688-.052-.627-.272-1.206-.597-1.742a4.272 4.272 0 0 0-1.137-1.217 4.188 4.188 0 0 0-1.544-.699c-.264-.063-.54-.075-.876-.118.108-.088.204-.148.276-.227.496-.546.829-1.182.925-1.914.09-.681.012-1.346-.28-1.986-.287-.633-.683-1.163-1.257-1.558a3.15 3.15 0 0 0-2.131-.563c-.358.033-.71.141-1.06.237-.814.224-1.626.458-2.438.692-.49.142-.98.289-1.469.44-.06.018-.108.076-.16.116-.184-.47.04-.961.516-1.1 1.607-.471 3.215-.937 4.823-1.396.43-.12.867-.254 1.307-.289 1.196-.095 2.172.36 2.916 1.302.572.723.885 1.545.857 2.473-.03 1.008-.417 1.867-1.146 2.568-.034.033-.065.068-.11.117.218.035.422.06.623.102 1.907.402 3.305 1.869 3.614 3.79.355 2.212-1.052 4.428-3.21 5.056-.316.092-.632.18-.95.269z" fill="#4c215c"/><path d="M39.615 18.144l-.094-.093c.1-.024.2-.053.296-.087l.092.092a3.184 3.184 0 0 1-.294.088z" fill="#461b49"/><path d="M39.91 18.056l-.093-.092c.865-.31 1.295-.979 1.301-1.878 0-.704-.162-1.22-.537-1.596l.093.094c.375.375.54.89.536 1.59-.006.9-.435 1.568-1.3 1.878" fill="#441a46"/><path d="M42.347 11.897l-.092-.092c.46.262.883.583 1.26.954l.092.092a6.082 6.082 0 0 0-1.26-.954z" fill="#532056"/><path d="M41.78 11.588l-.092-.094c.212.114.382.205.55.303l.093.092c-.169-.098-.343-.189-.55-.301z" fill="#511f54"/><path d="M42.331 11.89l-.092-.093.016.008.092.093zM34.69 18.3l-.093-.092c.014.015.03.027.05.037l.092.094a.247.247 0 0 1-.05-.038z" fill="#532056"/><path d="M34.739 18.336l-.093-.094c.018.01.038.02.058.026l.093.093a.419.419 0 0 1-.058-.025z" fill="#511f54"/><path d="M34.797 18.361l-.093-.094c.024.009.05.014.075.017l.093.094a.5.5 0 0 1-.075-.017z" fill="#4e1e51"/><path d="M34.87 18.378l-.092-.094c.048.008.097.01.146.01h.007l.092.092h-.006c-.049 0-.098-.002-.146-.008z" fill="#4b1d4e"/><path d="M35.023 18.386l-.092-.092h.23l.091.092z" fill="#491c4c"/><path d="M35.252 18.384l-.092-.092h1.483l.091.092h-1.363z" fill="#4b1d4e"/><path d="M36.735 18.391l-.092-.092c.272 0 .543-.006.814-.018a14.041 14.041 0 0 0 1.59-.137l.094.093c-.529.076-1.062.122-1.596.136-.27.013-.542.017-.814.018" fill="#491c4c"/><path d="M39.145 18.237l-.093-.093a5.5 5.5 0 0 0 .47-.094l.093.093a6.38 6.38 0 0 1-.47.094z" fill="#461b49"/><path d="M37.035 13.134l-.092-.092c-.353-.353-.53-.848-.507-1.415.03-.823.412-1.355 1.212-1.641l.093.092c-.801.287-1.183.818-1.211 1.64-.021.571.152 1.061.505 1.416z" fill="#441a46"/><path d="M37.742 10.078l-.094-.092.04-.014c.326-.112.672-.173 1.008-.26.096-.026.19-.056.282-.088l.093.092a3.498 3.498 0 0 1-.283.087c-.336.09-.68.149-1.008.262z" fill="#461b49"/><path d="M39.071 9.712l-.093-.092c.465-.167.853-.436 1.076-.926a2.215 2.215 0 0 0-.41-2.48l.094.092a2.218 2.218 0 0 1 .408 2.487c-.223.49-.61.759-1.075.925M31.387 21.384l-.092-.093c-.335-.335-.511-.83-.511-1.461-.004-5.237-.004-10.472 0-15.707 0-.934.381-1.59 1.098-1.845l.092.092c-.715.258-1.096.911-1.098 1.846-.005 5.235-.005 10.47 0 15.706 0 .636.176 1.126.51 1.462z" fill="#441a46"/><path d="M31.979 2.37l-.093-.092c.115-.042.233-.073.353-.093l.093.093c-.12.02-.239.05-.353.09" fill="#461b49"/><path d="M32.332 2.28l-.093-.095c.126-.02.253-.03.38-.03.813-.01 1.626-.02 2.438-.023l.094.093c-.815 0-1.628.014-2.439.022-.127 0-.254.01-.38.03" fill="#491c4c"/><path d="M35.152 2.227l-.094-.093h.41c1.218 0 2.438.021 3.646.106.15.01.297.027.441.048l.094.092a5.495 5.495 0 0 0-.441-.047 55.025 55.025 0 0 0-3.647-.106z" fill="#4b1d4e"/><path d="M39.649 2.375l-.094-.093c.284.043.564.11.837.198l.092.092a5.241 5.241 0 0 0-.835-.197z" fill="#4e1e51"/><path d="M40.484 2.572l-.092-.092c.34.11.669.256.98.434l.093.093a5.194 5.194 0 0 0-.98-.435z" fill="#511f54"/><path d="M41.465 3.007l-.094-.093c.398.23.764.51 1.088.835l.093.092a5.278 5.278 0 0 0-1.087-.834z" fill="#532056"/><path d="M42.347 11.898c1.909 1.106 2.8 2.777 2.666 4.97-.137 2.233-1.32 3.742-3.412 4.433-1.05.341-2.143.541-3.246.594-.708.034-1.418.045-2.128.045-1.14 0-2.282-.03-3.423-.046-1.246-.017-1.926-.724-1.927-1.972a9788.94 9788.94 0 0 1 0-15.706c0-1.215.644-1.955 1.83-1.967.955-.01 1.9-.022 2.85-.022 1.217 0 2.438.021 3.647.106 3.38.222 5.638 3.56 4.635 6.687-.302.94-.894 1.66-1.657 2.26l-.405.317c.218.106.393.2.57.3zm-2.732 6.246c1.06-.257 1.59-.97 1.596-1.966.007-1.166-.45-1.81-1.544-2.161-.253-.082-.52-.129-.78-.189-.4-.091-.817-.134-1.197-.278-.786-.3-1.19-.977-1.16-1.83.03-.836.424-1.371 1.25-1.654.328-.114.672-.173 1.008-.262.589-.156 1.092-.424 1.359-1.013.618-1.36-.186-2.936-1.66-3.061a17.2 17.2 0 0 0-1.464-.055c-.778 0-1.566.032-2.367.032-.02.093-.034.187-.042.281 0 4.003-.004 8.006-.012 12.01 0 .325.145.389.415.389h1.601c.31 0 .62 0 .931-.018.692-.031 1.397-.07 2.065-.23" fill="#712b75"/><path d="M87.031 2.521l-.094-.092h.09c.07.003.141.01.211.02l.093.092a2.389 2.389 0 0 0-.212-.02z" fill="#4b1d4e"/><path d="M87.332 2.544l-.092-.093c.101.016.201.04.3.07l.092.094a1.845 1.845 0 0 0-.3-.071z" fill="#4e1e51"/><path d="M87.634 2.615l-.093-.094c.116.038.23.087.335.149l.093.092a1.851 1.851 0 0 0-.335-.147z" fill="#511f54"/><path d="M87.968 2.762l-.094-.092a1.7 1.7 0 0 1 .355.271l.092.092a1.74 1.74 0 0 0-.353-.271zM79.505 17.345l-.092-.092c.142.142.303.265.478.365l.092.092a2.253 2.253 0 0 1-.478-.365z" fill="#532056"/><path d="M79.983 17.709l-.092-.093c.158.09.325.164.5.219l.091.093a2.653 2.653 0 0 1-.499-.22z" fill="#511f54"/><path d="M80.482 17.929l-.092-.094c.173.056.35.097.53.122l.092.092a3.332 3.332 0 0 1-.53-.12z" fill="#4e1e51"/><path d="M81.008 18.049l-.092-.092c.115.017.235.03.36.037.148.01.297.014.447.014h.025l.093.092h-.022c-.149 0-.299 0-.447-.014a3.843 3.843 0 0 1-.36-.037" fill="#4b1d4e"/><path d="M81.841 18.1l-.093-.092a6.374 6.374 0 0 0 .851-.06l.092.093a3.892 3.892 0 0 1-.28.035 6.79 6.79 0 0 1-.57.024z" fill="#491c4c"/><path d="M82.691 18.04l-.092-.092c.19-.03.376-.077.557-.142l.093.094a3.146 3.146 0 0 1-.558.14z" fill="#461b49"/><path d="M83.25 17.9l-.094-.093a2.259 2.259 0 0 0 1.464-1.572 10.3 10.3 0 0 0 .411-2.65c.052-2.88.02-5.76.028-8.64a5.215 5.215 0 0 1 .076-.99c.137-.699.574-1.206 1.166-1.417l.093.094c-.589.212-1.026.716-1.167 1.415a5.298 5.298 0 0 0-.076.99c-.007 2.88.026 5.762-.028 8.64-.02.898-.158 1.789-.41 2.65a2.26 2.26 0 0 1-1.464 1.573z" fill="#441a46"/><path d="M86.39 2.63l-.093-.093c.105-.037.214-.065.325-.083l.092.093a1.83 1.83 0 0 0-.325.083z" fill="#461b49"/><path d="M86.714 2.547l-.093-.093c.102-.017.206-.025.31-.025l.091.092c-.103.001-.206.01-.308.026z" fill="#491c4c"/><path d="M87.023 2.522l-.093-.093h.007l.094.093z" fill="#4b1d4e"/><path d="M76.783 19.977l-.093-.092c-.954-.954-1.534-2.24-1.82-3.78a15.257 15.257 0 0 1-.213-2.405c-.034-1.36-.009-2.72-.009-4.082 0-1.646-.012-3.286.012-4.937.002-.409.076-.814.218-1.198a1.591 1.591 0 0 1 .967-.942l.092.092a1.59 1.59 0 0 0-.965.942 3.501 3.501 0 0 0-.22 1.198c-.024 1.646-.01 3.292-.01 4.938 0 1.36-.026 2.722.008 4.081.007.806.078 1.61.212 2.405.287 1.541.87 2.827 1.822 3.78" fill="#441a46"/><path d="M75.933 2.632l-.092-.092c.106-.038.217-.067.328-.085l.093.094a1.872 1.872 0 0 0-.329.083z" fill="#461b49"/><path d="M76.262 2.549l-.092-.094a2.02 2.02 0 0 1 .318-.025l.092.092a2.03 2.03 0 0 0-.324.027" fill="#491c4c"/><path d="M76.585 2.522l-.092-.092h.082c.08.002.16.01.238.021l.092.092a2.181 2.181 0 0 0-.237-.02z" fill="#4b1d4e"/><path d="M76.905 2.545l-.092-.093c.104.016.207.04.307.072l.093.093a1.969 1.969 0 0 0-.308-.072z" fill="#4e1e51"/><path d="M77.213 2.616l-.093-.092c.12.038.233.088.341.15l.092.093a1.795 1.795 0 0 0-.34-.15z" fill="#511f54"/><path d="M77.553 2.767l-.092-.092c.125.072.241.16.343.262l.093.093a1.611 1.611 0 0 0-.344-.263z" fill="#532056"/><path d="M87.031 2.522h.088c.942.04 1.63.702 1.744 1.686.03.22.044.441.046.663-.013 3.259.02 6.52-.072 9.777a10.379 10.379 0 0 1-.636 3.14c-.849 2.352-2.65 3.582-5.089 3.922a9.764 9.764 0 0 1-1.334.095 8.661 8.661 0 0 1-1.968-.223c-2.863-.667-4.334-2.615-4.85-5.385a15.257 15.257 0 0 1-.213-2.405c-.034-1.359-.009-2.72-.008-4.081 0-1.646-.014-3.292.01-4.938.003-.409.077-.814.22-1.198.266-.683.891-1.052 1.626-1.052h.074c.756.025 1.401.451 1.628 1.166.125.406.188.828.188 1.253.015 2.833-.014 5.664.021 8.497.006.868.107 1.732.302 2.577.318 1.32 1.21 1.985 2.56 2.067a7 7 0 0 0 1.043-.011c1.131-.098 1.985-.651 2.302-1.748a10.3 10.3 0 0 0 .411-2.65c.053-2.879.02-5.76.028-8.64a5.215 5.215 0 0 1 .076-.991c.182-.93.901-1.521 1.803-1.521z" fill="#712b75"/><path d="M97.52 19.74l-.092-.092a6.612 6.612 0 0 1-.399-.434c-.453-.53-.763-1.118-.72-1.85a1.766 1.766 0 0 1 1.166-1.563l.093.092a1.766 1.766 0 0 0-1.167 1.563c-.043.732.27 1.316.72 1.85.127.151.261.295.4.434z" fill="#441a46"/><path d="M97.566 15.893l-.092-.092c.1-.036.204-.063.31-.081l.091.093a1.762 1.762 0 0 0-.309.08z" fill="#461b49"/><path d="M97.875 15.813l-.092-.093c.087-.014.175-.021.264-.022l.093.093c-.089 0-.177.007-.265.022z" fill="#491c4c"/><path d="M98.145 15.79l-.093-.091h.006c.083 0 .166.005.247.018l.094.092a1.785 1.785 0 0 0-.247-.018z" fill="#4b1d4e"/><path d="M98.393 15.809l-.093-.092c.09.013.18.034.266.062l.094.092a1.868 1.868 0 0 0-.267-.062z" fill="#4e1e51"/><path d="M98.66 15.871l-.094-.092c.115.037.225.087.33.146l.092.093a1.738 1.738 0 0 0-.328-.147z" fill="#511f54"/><path d="M98.993 16.018l-.092-.092c.031.018.063.037.094.057.364.24.668.577.984.884a6.1 6.1 0 0 0 1.2.922l.092.094a6.03 6.03 0 0 1-1.198-.924c-.318-.307-.622-.644-.986-.883a1.257 1.257 0 0 0-.094-.058z" fill="#532056"/><path d="M101.265 17.883l-.092-.094c.264.153.544.278.834.373l.093.093a4.407 4.407 0 0 1-.835-.372z" fill="#511f54"/><path d="M102.1 18.255l-.092-.093c.207.068.42.118.636.15l.092.092a3.966 3.966 0 0 1-.636-.15z" fill="#4e1e51"/><path d="M102.734 18.405l-.093-.092c.198.03.398.044.598.044h.015l.093.093h-.015c-.2 0-.4-.015-.598-.045z" fill="#4b1d4e"/><path d="M103.348 18.449l-.094-.094c.233 0 .465-.02.695-.058l.092.093a4.494 4.494 0 0 1-.693.059z" fill="#491c4c"/><path d="M104.041 18.39l-.092-.093a3.562 3.562 0 0 0 .67-.165l.092.092c-.168.059-.34.105-.515.139z" fill="#461b49"/><path d="M104.711 18.224l-.092-.092c.54-.193.966-.53 1.146-1.16.212-.742.106-1.465-.424-1.994l.093.092c.53.53.636 1.247.424 1.994-.178.626-.606.967-1.146 1.16" fill="#441a46"/><path d="M101.171 8.575l-.093-.092c.073.073.154.137.242.191.144.091.29.178.437.263l.094.092a12.202 12.202 0 0 1-.438-.262 1.361 1.361 0 0 1-.242-.192z" fill="#532056"/><path d="M101.856 9.029l-.093-.092c.611.35 1.26.669 1.89.987.953.485 1.952.893 2.876 1.425l.092.092c-.924-.53-1.923-.94-2.876-1.424-.636-.318-1.279-.636-1.894-.988" fill="#511f54"/><path d="M106.627 11.441l-.093-.092c.086.049.17.098.254.15a6.18 6.18 0 0 1 1.166.902l.092.092a6.172 6.172 0 0 0-1.16-.902c-.083-.051-.168-.101-.254-.15" fill="#532056"/><path d="M103.116 2.241l-.092-.093a7.6 7.6 0 0 1 1.126.082l.092.093a7.58 7.58 0 0 0-1.126-.082z" fill="#4b1d4e"/><path d="M104.242 2.322l-.092-.092c.375.056.746.142 1.107.259l.092.093a6.976 6.976 0 0 0-1.107-.26z" fill="#4e1e51"/><path d="M105.354 2.582l-.092-.093c.455.147.893.342 1.307.58l.092.093a6.78 6.78 0 0 0-1.307-.58z" fill="#511f54"/><path d="M106.656 3.162l-.092-.093a7.818 7.818 0 0 1 1.644 1.272l.092.092a7.742 7.742 0 0 0-1.644-1.272" fill="#532056"/><path d="M98.374 11.012l-.092-.093C97.164 9.8 96.754 8.36 97.01 6.657c.294-1.917 1.502-3.428 3.33-4.083l.091.093c-1.827.655-3.035 2.165-3.329 4.083-.26 1.702.15 3.143 1.272 4.262z" fill="#441a46"/><path d="M100.436 2.667l-.092-.093c.245-.087.495-.158.75-.212.17-.036.338-.068.506-.096l.093.093c-.168.027-.338.059-.507.095a5.967 5.967 0 0 0-.75.212" fill="#461b49"/><path d="M101.693 2.359l-.093-.093a9.025 9.025 0 0 1 1.395-.118l.092.093a8.905 8.905 0 0 0-1.394.118z" fill="#491c4c"/><path d="M103.087 2.242l-.093-.094h.03l.093.094z" fill="#4b1d4e"/><path d="M103.117 2.241c1.93 0 3.686.69 5.184 2.197.396.398.687.954.882 1.484.245.667.083 1.323-.5 1.803-.309.238-.69.364-1.08.358a1.7 1.7 0 0 1-.93-.262 8.13 8.13 0 0 1-1.156-.976 3.398 3.398 0 0 0-2.46-.988 5.139 5.139 0 0 0-1.016.106c-.646.131-1.06.561-1.196 1.21-.136.65 0 1.245.568 1.598.742.467 1.545.848 2.333 1.25 1.041.53 2.136.968 3.13 1.573 1.818 1.111 2.768 2.77 2.777 5.367-.043 1.881-1.097 3.552-3.22 4.494a7.62 7.62 0 0 1-3.09.636c-2.346 0-4.713-1-6.22-2.78-.453-.53-.765-1.119-.72-1.85a1.76 1.76 0 0 1 1.743-1.67c.333.001.658.1.935.285.365.239.67.576.986.884.946.92 2.008 1.484 3.264 1.484.29-.001.58-.03.864-.086.774-.152 1.43-.485 1.661-1.299.233-.814.076-1.614-.606-2.153a11.344 11.344 0 0 0-1.928-1.183c-1.199-.603-2.474-1.067-3.636-1.731C97.59 10.794 96.761 9 97.107 6.745c.332-2.17 1.834-3.817 4.078-4.296a9.24 9.24 0 0 1 1.932-.208z" fill="#712b75"/><path d="M60.81 14.828l-.093-.092c.095.002.19.01.284.023l.092.093a2.178 2.178 0 0 0-.284-.024z" fill="#4b1d4e"/><path d="M61.093 14.852l-.092-.092c.092.013.183.034.272.062l.093.092a1.618 1.618 0 0 0-.273-.062z" fill="#4e1e51"/><path d="M61.366 14.914l-.093-.092c.093.03.183.07.267.118l.093.092a1.414 1.414 0 0 0-.267-.118z" fill="#511f54"/><path d="M61.633 15.032l-.093-.092c.098.056.188.125.268.204l.092.093c-.08-.08-.17-.149-.267-.205z" fill="#532056"/><path d="M60.404 20.12l-.092-.092a5.093 5.093 0 0 1-1.484-3.129c-.106-.973.378-1.757 1.178-2.045l.093.092c-.8.288-1.286 1.072-1.179 2.046a5.104 5.104 0 0 0 1.484 3.128z" fill="#441a46"/><path d="M60.106 14.946l-.092-.092a1.96 1.96 0 0 1 .352-.09l.092.092c-.12.02-.237.05-.352.09z" fill="#461b49"/><path d="M60.458 14.856l-.092-.092c.113-.019.228-.028.342-.028l.092.092c-.114 0-.229.01-.342.028z" fill="#491c4c"/><path d="M60.801 14.829l-.093-.093h.01l.092.093zM69.274 2.52l-.093-.092c.101 0 .203.008.303.023l.092.092a2.026 2.026 0 0 0-.302-.022z" fill="#4b1d4e"/><path d="M69.576 2.543l-.092-.092c.101.015.201.038.3.069l.091.093a1.733 1.733 0 0 0-.299-.07z" fill="#4e1e51"/><path d="M69.875 2.609l-.092-.094c.114.038.225.087.33.147l.091.092a1.68 1.68 0 0 0-.329-.145z" fill="#511f54"/><path d="M70.204 2.758l-.092-.092c.125.07.241.158.342.26l.094.093a1.649 1.649 0 0 0-.344-.262M63.182 17.562l-.094-.092c.124.124.264.23.416.318l.092.092a1.944 1.944 0 0 1-.414-.318z" fill="#532056"/><path d="M63.596 17.881l-.092-.092c.126.072.26.131.398.176l.093.092a2.012 2.012 0 0 1-.399-.176z" fill="#511f54"/><path d="M63.995 18.057l-.093-.092c.131.041.264.072.4.092l.091.093a2.57 2.57 0 0 1-.398-.093z" fill="#4e1e51"/><path d="M64.393 18.15l-.092-.093c.161.024.323.035.486.034h.013l.094.093h-.015c-.163 0-.325-.01-.486-.034z" fill="#4b1d4e"/><path d="M64.894 18.183l-.093-.092a4.152 4.152 0 0 0 .594-.043l.092.092a4.49 4.49 0 0 1-.594.044" fill="#491c4c"/><path d="M65.483 18.14l-.092-.092c.141-.023.28-.059.414-.106l.093.092a2.314 2.314 0 0 1-.415.106z" fill="#461b49"/><path d="M65.898 18.034l-.093-.092c.684-.245 1.146-.808 1.323-1.691.115-.638.17-1.284.163-1.932.016-3.117 0-6.234.013-9.35a5.267 5.267 0 0 1 .112-1.175c.147-.63.53-1.06 1.066-1.249l.093.092c-.539.193-.92.62-1.067 1.25a5.334 5.334 0 0 0-.106 1.175c-.01 3.117 0 6.233-.015 9.35.007.647-.047 1.294-.162 1.931-.176.884-.636 1.446-1.323 1.69" fill="#441a46"/><path d="M68.575 2.637l-.093-.092c.113-.04.228-.07.346-.088l.092.092a1.901 1.901 0 0 0-.345.088z" fill="#461b49"/><path d="M68.92 2.55l-.092-.093a1.77 1.77 0 0 1 .203-.023h.142l.093.092h-.142c-.069 0-.137.013-.204.023z" fill="#491c4c"/><path d="M69.266 2.521l-.092-.093h.007l.094.093z" fill="#4b1d4e"/><path d="M69.274 2.52c.768 0 1.418.414 1.68 1.152.127.39.191.797.19 1.208.02 1.819.007 3.638.007 5.457-.039 1.772-.01 3.544-.054 5.315a9.176 9.176 0 0 1-.303 2.01c-.563 2.18-1.945 3.548-4.175 3.974-.627.125-1.264.19-1.903.196-1.452 0-2.823-.395-4.038-1.463a5.108 5.108 0 0 1-1.746-3.376c-.136-1.233.681-2.163 1.881-2.163.682.014 1.14.295 1.403.87.156.345.28.706.432 1.052.432.974 1.146 1.434 2.235 1.434.14 0 .283-.008.434-.022 1.005-.098 1.685-.703 1.908-1.819.115-.637.17-1.284.162-1.931.016-3.117.006-6.233.015-9.35a5.334 5.334 0 0 1 .106-1.176c.193-.826.79-1.303 1.616-1.36.051-.005.101-.007.15-.007z" fill="#712b75"/><path d="M59.032 2.513l-.093-.093c.09 0 .178.007.266.02l.093.094a1.759 1.759 0 0 0-.266-.02z" fill="#4b1d4e"/><path d="M59.298 2.533l-.093-.093c.108.016.214.041.318.075l.092.093a1.89 1.89 0 0 0-.318-.075" fill="#4e1e51"/><path d="M59.613 2.61l-.092-.093a2.323 2.323 0 0 1 .424.189l.092.092-.106-.059a2.229 2.229 0 0 0-.318-.13z" fill="#511f54"/><path d="M60.04 2.797l-.092-.093c.14.08.27.178.383.29l.092.093a1.823 1.823 0 0 0-.383-.29z" fill="#532056"/><path d="M53.31 10.32l-.092-.092c.312-.515.591-.967.866-1.424 1.01-1.682 2.021-3.364 3.034-5.046a6.08 6.08 0 0 1 .336-.518c.228-.328.55-.58.923-.72l.092.092a1.973 1.973 0 0 0-.922.72c-.122.167-.23.34-.337.518-1.012 1.68-2.022 3.362-3.03 5.046-.274.457-.553.91-.865 1.424" fill="#441a46"/><path d="M58.465 2.609l-.092-.092c.095-.035.194-.06.294-.077l.094.092c-.1.016-.2.042-.296.077z" fill="#461b49"/><path d="M58.761 2.535l-.093-.093a1.7 1.7 0 0 1 .265-.022l.093.093c-.089 0-.177.008-.265.022z" fill="#491c4c"/><path d="M59.026 2.514l-.093-.094h.006l.094.094z" fill="#4b1d4e"/><path d="M52.042 21.385l-.092-.093a1.887 1.887 0 0 1-.455-.742 3.585 3.585 0 0 1-.158-1.072c-.016-1.66 0-3.323-.017-4.982a1.714 1.714 0 0 0-.239-.839c-1.609-2.62-3.247-5.217-4.853-7.831a4.506 4.506 0 0 1-.574-1.387c-.166-.789.247-1.474.977-1.817a2.62 2.62 0 0 1 .198-.083l.093.093a2.466 2.466 0 0 0-.199.082c-.73.344-1.143 1.029-.976 1.817.112.491.306.96.574 1.387 1.605 2.615 3.244 5.212 4.853 7.825.15.254.232.542.238.838.022 1.66 0 3.324.017 4.982-.001.363.052.725.158 1.072.092.28.248.533.455.742" fill="#441a46"/><path d="M46.922 2.631l-.088-.092c.118-.042.239-.073.362-.093l.092.092a2.15 2.15 0 0 0-.36.093" fill="#461b49"/><path d="M47.283 2.538l-.092-.092c.097-.016.196-.025.294-.025l.093.092c-.1 0-.198.009-.295.025z" fill="#491c4c"/><path d="M47.576 2.513l-.092-.092h.007c.088 0 .176.006.264.02l.092.091a1.82 1.82 0 0 0-.264-.019z" fill="#4b1d4e"/><path d="M47.848 2.532l-.092-.092c.091.014.182.035.27.064l.093.092a1.712 1.712 0 0 0-.271-.064z" fill="#4e1e51"/><path d="M48.12 2.596l-.094-.093c.11.035.217.082.318.14l.092.093a1.683 1.683 0 0 0-.318-.141" fill="#511f54"/><path d="M48.435 2.737l-.092-.093c.129.074.247.166.352.271l.092.092a1.64 1.64 0 0 0-.352-.27z" fill="#532056"/><path d="M59.033 2.514c.313.004.621.081.9.225.813.406 1.15 1.22.856 2.172-.11.329-.26.643-.45.934-1.618 2.61-3.254 5.208-4.856 7.826a2.293 2.293 0 0 0-.307 1.101c-.034 1.566-.01 3.134-.019 4.701.01.332-.02.663-.085.988-.205.876-.853 1.399-1.72 1.432h-.074a1.772 1.772 0 0 1-1.69-1.257 3.614 3.614 0 0 1-.158-1.072c-.016-1.66 0-3.323-.017-4.982a1.708 1.708 0 0 0-.239-.838c-1.608-2.613-3.247-5.21-4.852-7.825a4.5 4.5 0 0 1-.575-1.387c-.166-.79.247-1.474.982-1.817.269-.129.563-.197.86-.2a1.679 1.679 0 0 1 1.273.567c.195.228.368.473.517.733 1.219 2.017 2.434 4.037 3.645 6.06.078.129.165.254.288.445.312-.513.59-.967.865-1.424 1.012-1.681 2.021-3.364 3.03-5.046.106-.177.212-.351.337-.518.392-.538.92-.818 1.49-.818z" fill="#712b75"/><path d="M93.45 2.478l-.093-.092c.123-.001.247.008.37.026l.092.092a2.578 2.578 0 0 0-.37-.026z" fill="#4b1d4e"/><path d="M93.82 2.503l-.093-.092c.105.015.21.04.31.072l.094.092a2.026 2.026 0 0 0-.312-.072z" fill="#4e1e51"/><path d="M94.131 2.576l-.094-.092c.108.035.212.08.31.137l.093.092a1.666 1.666 0 0 0-.309-.137z" fill="#511f54"/><path d="M94.44 2.715l-.093-.092c.11.063.21.14.3.229l.093.093a1.427 1.427 0 0 0-.3-.23z" fill="#532056"/><path d="M92.103 8.97l-.094-.092a1.627 1.627 0 0 1-.355-.574c-.116-.309-.24-.636-.25-.954-.035-1.042-.07-2.089 0-3.127.054-.885.488-1.473 1.16-1.714l.092.093c-.672.24-1.105.828-1.16 1.714-.066 1.037-.03 2.084 0 3.126.011.318.136.649.251.954.076.215.197.41.356.575z" fill="#441a46"/><path d="M92.654 2.603l-.093-.094c.117-.04.237-.071.36-.09l.092.091c-.122.02-.243.05-.359.093z" fill="#461b49"/><path d="M93.013 2.51l-.092-.092a3.039 3.039 0 0 1 .425-.033l.092.093a3.187 3.187 0 0 0-.425.033z" fill="#491c4c"/><path d="M93.44 2.478l-.094-.093h.011l.092.093z" fill="#4b1d4e"/><path d="M93.45 2.478c1.198 0 1.868.749 1.856 2.273-.135 1.166-.424 2.507-1.023 3.764-.245.517-.679.82-1.252.82h-.084c-.6-.03-.992-.388-1.198-.934-.116-.307-.24-.636-.25-.954-.035-1.042-.07-2.088 0-3.126.068-1.107.728-1.75 1.706-1.828.081-.01.164-.015.244-.015z" fill="#712b75"/></svg>