<svg xmlns="http://www.w3.org/2000/svg" width="166.873" height="113.047" viewBox="0 0 166.873 113.047"><defs><style>.a{fill:#0c3b42;}.b{fill:#fff;}.c{fill:#00b67a;}.d{fill:#005128;}.e,.f{fill:#ffb800;}.f{opacity:0.3;}</style></defs><g transform="translate(-564 -20)"><path class="a" d="M545,39.324C545,28.652,554.578,20,566.394,20H690.479c11.816,0,21.394,8.652,21.394,19.324v74.4c0,10.673-9.578,19.324-21.394,19.324H566.394c-11.815,0-21.394-8.652-21.394-19.324Z" transform="translate(19)"/><path class="b" d="M620.755,131.134h9.187v1.71h-3.617v9.641h-1.983v-9.641h-3.6Zm8.794,3.133h1.7v1.589h.031a2,2,0,0,1,.318-.65,3.041,3.041,0,0,1,1.287-1,2.122,2.122,0,0,1,.8-.166c.212,0,.363.016.439.016a1.35,1.35,0,0,0,.242.03v1.741a3.108,3.108,0,0,0-.393-.06,3.323,3.323,0,0,0-.394-.03,2.1,2.1,0,0,0-.863.182,2.188,2.188,0,0,0-.711.529,2.865,2.865,0,0,0-.484.878,3.707,3.707,0,0,0-.181,1.211v3.9h-1.816Zm13.138,8.218H640.9v-1.15h-.031a2.534,2.534,0,0,1-1,1,2.638,2.638,0,0,1-1.347.378,3,3,0,0,1-2.346-.8,3.51,3.51,0,0,1-.726-2.422v-5.222h1.816v5.04a2.148,2.148,0,0,0,.424,1.529,1.5,1.5,0,0,0,1.166.454,2.236,2.236,0,0,0,.953-.181,1.646,1.646,0,0,0,.62-.469,1.844,1.844,0,0,0,.348-.711,3.361,3.361,0,0,0,.106-.893v-4.767H642.7v8.218Zm3.088-2.633a1.429,1.429,0,0,0,.606,1.12,2.376,2.376,0,0,0,1.256.318,4.139,4.139,0,0,0,.576-.045,2.545,2.545,0,0,0,.605-.151,1.063,1.063,0,0,0,.469-.333.777.777,0,0,0,.166-.56.814.814,0,0,0-.257-.576,2.161,2.161,0,0,0-.606-.363,5.307,5.307,0,0,0-.847-.227c-.318-.06-.636-.136-.969-.212s-.665-.166-.983-.273a2.832,2.832,0,0,1-.848-.439,1.892,1.892,0,0,1-.59-.7,2.172,2.172,0,0,1-.226-1.044,1.788,1.788,0,0,1,.333-1.12,2.415,2.415,0,0,1,.832-.727,3.792,3.792,0,0,1,1.12-.394,6.487,6.487,0,0,1,1.166-.105,5.217,5.217,0,0,1,1.21.136,3.079,3.079,0,0,1,1.045.439,2.4,2.4,0,0,1,.771.787,2.724,2.724,0,0,1,.394,1.166H649.1a1.166,1.166,0,0,0-.59-.879,2.445,2.445,0,0,0-1.075-.226c-.121,0-.287.015-.454.03a2.656,2.656,0,0,0-.5.122,1.173,1.173,0,0,0-.394.257.609.609,0,0,0-.166.439.667.667,0,0,0,.227.53,2.059,2.059,0,0,0,.605.347,5.142,5.142,0,0,0,.847.227c.318.061.651.136.984.212s.651.167.969.273a2.653,2.653,0,0,1,.847.439,2.181,2.181,0,0,1,.605.682,2.087,2.087,0,0,1,.227,1.014,2.207,2.207,0,0,1-.333,1.242,2.841,2.841,0,0,1-.863.832,4.268,4.268,0,0,1-1.181.469,6.3,6.3,0,0,1-1.286.152,5.427,5.427,0,0,1-1.438-.181,3.658,3.658,0,0,1-1.15-.53,2.543,2.543,0,0,1-.757-.893,2.921,2.921,0,0,1-.3-1.271h1.831v.015Zm5.979-5.585h1.378v-2.482h1.816v2.468h1.634V135.6h-1.634v4.389a4.539,4.539,0,0,0,.03.5,1.049,1.049,0,0,0,.105.348.593.593,0,0,0,.258.212,1.352,1.352,0,0,0,.484.076,3.234,3.234,0,0,0,.379-.015,3.341,3.341,0,0,0,.378-.061v1.408c-.2.03-.394.045-.59.06a3.735,3.735,0,0,1-.59.03,3.925,3.925,0,0,1-1.15-.136,1.66,1.66,0,0,1-.681-.394,1.4,1.4,0,0,1-.333-.651,5.086,5.086,0,0,1-.106-.908v-4.843h-1.378v-1.347Zm6.1,0h1.71v1.12h.03a2.252,2.252,0,0,1,1.06-1.029,3.435,3.435,0,0,1,1.483-.318,3.73,3.73,0,0,1,1.7.348,3.178,3.178,0,0,1,1.2.939,3.9,3.9,0,0,1,.711,1.392,6.1,6.1,0,0,1,.03,3.3,4.463,4.463,0,0,1-.65,1.378,3.228,3.228,0,0,1-1.105.953,3.27,3.27,0,0,1-1.574.363,4.642,4.642,0,0,1-.787-.076,3.374,3.374,0,0,1-.757-.226,2.734,2.734,0,0,1-.666-.409,2.322,2.322,0,0,1-.515-.575h-.03v4.1h-1.816V134.267Zm6.342,4.117a3.7,3.7,0,0,0-.151-1.075,2.755,2.755,0,0,0-.44-.924,2.424,2.424,0,0,0-.711-.65,1.94,1.94,0,0,0-.984-.242,2.01,2.01,0,0,0-1.726.787,3.586,3.586,0,0,0-.575,2.119,3.933,3.933,0,0,0,.151,1.15,2.566,2.566,0,0,0,.454.908,2.162,2.162,0,0,0,.726.606,2.061,2.061,0,0,0,.984.226,2.013,2.013,0,0,0,1.044-.257,2.426,2.426,0,0,0,.711-.651,2.657,2.657,0,0,0,.394-.923A5.188,5.188,0,0,0,664.194,138.384Zm3.194-7.25H669.2v1.71h-1.816Zm0,3.133H669.2v8.218h-1.816Zm3.436-3.133h1.816v11.351h-1.816Zm7.356,11.578a4.323,4.323,0,0,1-1.756-.333,3.993,3.993,0,0,1-1.3-.893,3.9,3.9,0,0,1-.8-1.378,5.391,5.391,0,0,1-.287-1.741,4.914,4.914,0,0,1,.287-1.725,4.046,4.046,0,0,1,.8-1.378,3.634,3.634,0,0,1,1.3-.893,4.586,4.586,0,0,1,1.756-.333,4.322,4.322,0,0,1,1.755.333,3.768,3.768,0,0,1,1.3.893,3.9,3.9,0,0,1,.8,1.378,5.276,5.276,0,0,1,.287,1.725,4.937,4.937,0,0,1-.287,1.741,4.277,4.277,0,0,1-.8,1.378,3.635,3.635,0,0,1-1.3.893A4.545,4.545,0,0,1,678.18,142.712Zm0-1.438a2.085,2.085,0,0,0,1.044-.258,2.191,2.191,0,0,0,.726-.665,2.847,2.847,0,0,0,.424-.924,4.14,4.14,0,0,0,0-2.1,2.707,2.707,0,0,0-.424-.923,2.308,2.308,0,0,0-.726-.651,2.136,2.136,0,0,0-1.044-.257,2.1,2.1,0,0,0-1.045.257,2.326,2.326,0,0,0-.726.651,2.707,2.707,0,0,0-.424.923,4.138,4.138,0,0,0,0,2.1,2.711,2.711,0,0,0,.424.924,2.353,2.353,0,0,0,.726.665A1.981,1.981,0,0,0,678.18,141.275Zm4.692-7.008h1.378v-2.482h1.816v2.468H687.7V135.6h-1.634v4.389a4.554,4.554,0,0,0,.03.5,1.049,1.049,0,0,0,.105.348.593.593,0,0,0,.258.212,1.352,1.352,0,0,0,.484.076,3.221,3.221,0,0,0,.378-.015,3.324,3.324,0,0,0,.379-.061v1.408c-.2.03-.394.045-.59.06a3.735,3.735,0,0,1-.59.03,3.921,3.921,0,0,1-1.15-.136,1.66,1.66,0,0,1-.681-.394,1.4,1.4,0,0,1-.333-.651,5.092,5.092,0,0,1-.106-.908v-4.843h-1.378v-1.347Z" transform="translate(3.623 -35.186)"/><path class="c" d="M613.519,129.439H605.21l-2.558-7.9-2.573,7.9-8.31-.016,6.72,4.889-2.573,7.9,6.72-4.888,6.72,4.888-2.557-7.9Z" transform="translate(8.74 -33.49)"/><path class="d" d="M609.709,138.839l-.575-1.786-4.147,3.012Z" transform="translate(6.405 -22.674)"/><path class="b" d="M612.07,50.887h-6.286l-7.148,11.959v3.087h8.983v3.5h4.45v-3.5h2.253v-3.7H612.07Zm-8.817,11.347,4.366-7.565v7.565Zm15.981,7.732a2.848,2.848,0,0,0,2.031-.862,2.889,2.889,0,0,0,.028-4.033,2.921,2.921,0,0,0-2.058-.89,2.893,2.893,0,0,0,0,5.785ZM624.2,63.1a7.4,7.4,0,0,0,2.309,4.839,7.5,7.5,0,0,0,5.312,1.919,7.607,7.607,0,0,0,5.535-1.975A5.584,5.584,0,0,0,639,63.819a4.687,4.687,0,0,0-.779-2.726,4.539,4.539,0,0,0-2.2-1.7,3.182,3.182,0,0,0,1.419-1.418A4.472,4.472,0,0,0,638,55.7a5.041,5.041,0,0,0-1.5-3.588,7.425,7.425,0,0,0-9.512.167,6.593,6.593,0,0,0-1.807,4.255h4.478a2.335,2.335,0,0,1,.64-1.641,1.884,1.884,0,0,1,1.335-.473,1.992,1.992,0,0,1,1.363.5,2.058,2.058,0,0,1,.5,1.335,1.742,1.742,0,0,1-.612,1.307,2.358,2.358,0,0,1-1.974.473v3.254a2.461,2.461,0,0,1,.806-.111,2.913,2.913,0,0,1,1.78.528,2.125,2.125,0,0,1,.723,1.641,2.179,2.179,0,0,1-.556,1.53,2.467,2.467,0,0,1-1.891.807,2.555,2.555,0,0,1-1.891-.723,2.891,2.891,0,0,1-.751-1.863Zm15.064,11.57h3.615l14.24-25.5H653.48Zm33.288-23.779h-9.651l-1.613,9.985a7.471,7.471,0,0,1,3.42-.779,5.346,5.346,0,0,1,3.338.918,2.621,2.621,0,0,1,.889,2,2.771,2.771,0,0,1-.723,1.891,3.337,3.337,0,0,1-2.419.918,6.891,6.891,0,0,1-2.781-.64,8.978,8.978,0,0,1-2.225-1.5l-.724,4.506a11.267,11.267,0,0,0,6.258,1.669,7.731,7.731,0,0,0,5.785-2.086,6.484,6.484,0,0,0,1.78-4.645,6.036,6.036,0,0,0-1.7-4.394,6.592,6.592,0,0,0-4.894-1.836,10.331,10.331,0,0,0-1.5.139l.333-2.058h6.425Z" transform="translate(7.527 -7.15)"/><path class="e" d="M610.62,89.6h-4.341l-1.438-4.478a.274.274,0,0,0-.521,0L602.88,89.6h-4.341a.272.272,0,0,0-.16.051.274.274,0,0,0-.008.441l3.462,2.681-1.441,4.431a.275.275,0,0,0,.261.359.27.27,0,0,0,.161-.053l3.765-2.734,3.764,2.734a.274.274,0,0,0,.422-.307l-1.441-4.431,3.461-2.681a.273.273,0,0,0,.092-.306.27.27,0,0,0-.1-.135A.274.274,0,0,0,610.62,89.6Z" transform="translate(7.593 -13.469)"/><path class="e" d="M630.752,89.6h-4.341l-1.438-4.478a.27.27,0,0,0-.1-.137.274.274,0,0,0-.422.137L623.012,89.6h-4.341a.275.275,0,0,0-.168.492l3.462,2.681-1.441,4.431a.284.284,0,0,0,0,.17.273.273,0,0,0,.1.137.273.273,0,0,0,.323,0l3.764-2.734,3.764,2.734a.276.276,0,0,0,.423-.137.285.285,0,0,0,0-.17l-1.441-4.431,3.462-2.681a.273.273,0,0,0,.095-.138.275.275,0,0,0-.1-.3A.273.273,0,0,0,630.752,89.6Z" transform="translate(4.037 -13.469)"/><path class="e" d="M650.879,89.6h-4.341L645.1,85.125a.274.274,0,0,0-.521,0L643.139,89.6H638.8a.272.272,0,0,0-.16.051.274.274,0,0,0-.008.441l3.462,2.681-1.441,4.431a.286.286,0,0,0,0,.17.278.278,0,0,0,.1.137.273.273,0,0,0,.162.053.268.268,0,0,0,.16-.053l3.765-2.734,3.764,2.734a.273.273,0,0,0,.323,0,.268.268,0,0,0,.1-.137.273.273,0,0,0,0-.17l-1.441-4.431,3.462-2.681a.278.278,0,0,0,.095-.138.275.275,0,0,0-.262-.354Z" transform="translate(0.482 -13.469)"/><path class="e" d="M671.011,89.6H666.67l-1.438-4.478a.275.275,0,0,0-.522,0L663.271,89.6H658.93a.273.273,0,0,0-.259.186.275.275,0,0,0,.091.306l3.463,2.681-1.441,4.431a.274.274,0,0,0,.422.307l3.764-2.734,3.764,2.734a.274.274,0,0,0,.422-.307l-1.441-4.431,3.462-2.681a.273.273,0,0,0,.095-.138.277.277,0,0,0,0-.167.28.28,0,0,0-.1-.135A.276.276,0,0,0,671.011,89.6Z" transform="translate(-3.073 -13.469)"/><path class="f" d="M690.694,89.6h-4.341l-1.438-4.478a.275.275,0,0,0-.522,0L682.953,89.6h-4.34a.274.274,0,0,0-.168.492l3.462,2.681-1.441,4.431a.274.274,0,0,0,.422.307l3.765-2.734,3.764,2.734a.274.274,0,0,0,.422-.307L687.4,92.775l3.462-2.681a.274.274,0,0,0,.095-.138.271.271,0,0,0,0-.167.274.274,0,0,0-.259-.186Z" transform="translate(-6.55 -13.469)"/><path class="e" d="M678.613,90.124h4.34l.72-2.239.039,8.1-.471.342-.47.342-1.882,1.367a.27.27,0,0,1-.161.053.273.273,0,0,1-.261-.189.272.272,0,0,1,0-.17l1.441-4.431-3.462-2.681a.275.275,0,0,1,.168-.492Z" transform="translate(-6.55 -13.99)"/></g></svg>