<svg xmlns="http://www.w3.org/2000/svg" width="166.873" height="113.047" viewBox="0 0 166.873 113.047"><defs><style>.a{fill:#842e80;}.b{fill:#fff;}.c,.d{fill:#ffb800;}.d{opacity:0.3;}</style></defs><g transform="translate(-751.669 -20)"><path class="a" d="M796,50.726c0-10.64,0-15.96,2.256-20.039a20.482,20.482,0,0,1,9.575-8.649C812.347,20,818.236,20,830.016,20h98.84c11.78,0,17.67,0,22.185,2.038a20.482,20.482,0,0,1,9.575,8.649c2.256,4.078,2.256,9.4,2.256,20.039v51.6c0,10.641,0,15.96-2.256,20.039a20.482,20.482,0,0,1-9.575,8.649c-4.515,2.038-10.405,2.038-22.185,2.038h-98.84c-11.78,0-17.67,0-22.185-2.038a20.482,20.482,0,0,1-9.575-8.649C796,118.282,796,112.962,796,102.321Z" transform="translate(-44.331)"/><path class="b" d="M836.265,134.363v-2.225h-7.6v2.225h2.482v9.191h2.636v-9.191Zm2.3,4.33a1.717,1.717,0,0,1,.427-.821,1.809,1.809,0,0,1,2.413-.068,1.936,1.936,0,0,1,.5.889Zm5.614,1.215a4.352,4.352,0,0,0-1.079-3.1,4.516,4.516,0,0,0-5.956-.051,4.347,4.347,0,0,0-1.163,3.012,4.1,4.1,0,0,0,1.147,2.944,3.952,3.952,0,0,0,3.047,1.1,4.532,4.532,0,0,0,2.413-.565,3.415,3.415,0,0,0,1.472-1.918l-2.328-.24a1.5,1.5,0,0,1-.53.634,2.026,2.026,0,0,1-.993.222,1.653,1.653,0,0,1-1.266-.479,2.087,2.087,0,0,1-.462-1.3h5.7Zm7.392-3.132a2.865,2.865,0,0,0-2.4-1.112,3.682,3.682,0,0,0-2.653,1.044,4.345,4.345,0,0,0-1.182,3.081,4.039,4.039,0,0,0,1.113,2.858,3.617,3.617,0,0,0,2.858,1.164,2.545,2.545,0,0,0,2.259-1.182v.925h2.464v-7.634H851.57Zm-1.78,1.01a2.065,2.065,0,0,1,1.369.53,2.025,2.025,0,0,1-.035,2.841,1.825,1.825,0,0,1-1.284.53,2.025,2.025,0,0,1-1.455-.6,1.968,1.968,0,0,1-.513-1.368,1.906,1.906,0,0,1,.565-1.387A1.943,1.943,0,0,1,849.79,137.787Zm11.889-1.695a4.353,4.353,0,0,0-1.934-.428,4.006,4.006,0,0,0-4.175,4.091,3.979,3.979,0,0,0,1.2,2.91,4.1,4.1,0,0,0,2.961,1.147,3.809,3.809,0,0,0,1.951-.463v-2.225a2.4,2.4,0,0,1-1.574.6,2.031,2.031,0,0,1-1.49-.617,1.977,1.977,0,0,1-.513-1.369,2.011,2.011,0,0,1,.565-1.438,1.962,1.962,0,0,1,1.4-.548,2.473,2.473,0,0,1,1.609.582Zm1.706,7.462h2.464v-3.817a2.173,2.173,0,0,1,.514-1.592,1.338,1.338,0,0,1,.976-.376,1.4,1.4,0,0,1,.958.343,2.052,2.052,0,0,1,.41,1.523v3.919h2.465v-4.844a3.023,3.023,0,0,0-.753-2.225,2.9,2.9,0,0,0-2.156-.77,2.863,2.863,0,0,0-1.489.325,3.088,3.088,0,0,0-.925.787v-5.751h-2.464Zm11.55-4.861a1.717,1.717,0,0,1,.427-.821,1.809,1.809,0,0,1,2.413-.068,1.937,1.937,0,0,1,.5.889Zm5.614,1.215a4.352,4.352,0,0,0-1.079-3.1,4.516,4.516,0,0,0-5.956-.051,4.347,4.347,0,0,0-1.163,3.012,4.1,4.1,0,0,0,1.147,2.944,3.951,3.951,0,0,0,3.047,1.1,4.532,4.532,0,0,0,2.412-.565,3.415,3.415,0,0,0,1.472-1.918l-2.328-.24a1.5,1.5,0,0,1-.53.634,2.026,2.026,0,0,1-.993.222,1.653,1.653,0,0,1-1.266-.479,2.088,2.088,0,0,1-.462-1.3h5.7Zm1.538,3.646h2.464v-3.1a2.9,2.9,0,0,1,.6-2.054,1.612,1.612,0,0,1,1.233-.514,2.324,2.324,0,0,1,1.112.274l.137-2.31a2.467,2.467,0,0,0-.8-.12,2.367,2.367,0,0,0-1.318.325,2.736,2.736,0,0,0-.958,1.061v-1.2h-2.464Zm10.854-11.416v11.416h2.636v-4.5l3.081,4.5h3.218l-3.509-4.673a3.6,3.6,0,0,0,1.592-.873,3.125,3.125,0,0,0,.889-2.328,3.441,3.441,0,0,0-.992-2.55,4.082,4.082,0,0,0-2.91-.993Zm2.636,2.054h.617a2.572,2.572,0,0,1,1.454.359,1.385,1.385,0,0,1,.531,1.164,1.536,1.536,0,0,1-.428,1.112,2.167,2.167,0,0,1-1.574.5h-.6Zm13.156,2.584a2.863,2.863,0,0,0-2.4-1.112,3.682,3.682,0,0,0-2.653,1.044,4.348,4.348,0,0,0-1.181,3.081,4.038,4.038,0,0,0,1.112,2.858,3.617,3.617,0,0,0,2.858,1.164,2.545,2.545,0,0,0,2.259-1.182v.925H911.2v-7.634h-2.464Zm-1.78,1.01a2.065,2.065,0,0,1,1.369.53,2.025,2.025,0,0,1-.035,2.841,1.825,1.825,0,0,1-1.284.53,2.025,2.025,0,0,1-1.455-.6,1.968,1.968,0,0,1-.513-1.368,1.907,1.907,0,0,1,.565-1.387A1.943,1.943,0,0,1,906.952,137.787Zm10.212.119v-1.985H915.64v-2.464h-2.464v2.464h-.856v1.985h.856v5.648h2.464v-5.648Zm1.229-1.985v7.634h2.465v-7.634Zm-.205-3.252a1.438,1.438,0,1,0,1.438-1.438A1.424,1.424,0,0,0,918.188,132.669Zm4.764,10.885h2.464v-3.919a1.953,1.953,0,0,1,.479-1.455,1.34,1.34,0,0,1,1.028-.411,1.292,1.292,0,0,1,.941.343,2.116,2.116,0,0,1,.411,1.523v3.919h2.464v-4.827a2.692,2.692,0,0,0-2.961-3.012,2.788,2.788,0,0,0-2.362,1.112v-.907h-2.464Zm15.513-6.744a2.534,2.534,0,0,0-2.276-1.147,3.751,3.751,0,0,0-2.772,1.1,4.365,4.365,0,0,0-1.13,3.047,3.972,3.972,0,0,0,1.112,2.875,3.752,3.752,0,0,0,2.79,1.078,2.4,2.4,0,0,0,2.276-1.147v.874a2.27,2.27,0,0,1-.5,1.592,1.737,1.737,0,0,1-1.233.411,2.041,2.041,0,0,1-1.061-.257,1.268,1.268,0,0,1-.548-.753H932.44a3.408,3.408,0,0,0,1.146,2.02,4.758,4.758,0,0,0,3.184.976,4.357,4.357,0,0,0,3.217-1.13,4.465,4.465,0,0,0,.942-3.252v-7.171h-2.465Zm-1.711.993a2.063,2.063,0,0,1,1.335.479,1.935,1.935,0,0,1,.582,1.4,2.013,2.013,0,0,1-.6,1.455,1.9,1.9,0,0,1-1.335.5,1.829,1.829,0,0,1-1.387-.548,2.02,2.02,0,0,1-.53-1.368,2.1,2.1,0,0,1,.582-1.421A2,2,0,0,1,936.753,137.8Z" transform="translate(-49.1 -32.691)"/><path class="b" d="M863.07,50.887h-6.285l-7.148,11.959v3.087h8.983v3.5h4.45v-3.5h2.253v-3.7H863.07Zm-8.816,11.347,4.366-7.565v7.565Zm15.981,7.732a2.849,2.849,0,0,0,2.03-.862,2.889,2.889,0,0,0,.028-4.033,2.924,2.924,0,0,0-2.058-.89,2.893,2.893,0,0,0,0,5.785Zm15.818-10.29a5.281,5.281,0,0,0,1.89-1.14,3.915,3.915,0,0,0,1.14-2.892,4.687,4.687,0,0,0-1.363-3.393,6.6,6.6,0,0,0-4.784-1.78,7.294,7.294,0,0,0-4.95,1.7,4.824,4.824,0,0,0-1.53,3.5,4.064,4.064,0,0,0,1.251,2.948,5.047,5.047,0,0,0,1.669,1.057,6.16,6.16,0,0,0-2.336,1.363,5.036,5.036,0,0,0-1.363,3.337,5.136,5.136,0,0,0,1.53,3.532,7.462,7.462,0,0,0,5.535,1.947,7.6,7.6,0,0,0,5.618-1.975,5.011,5.011,0,0,0,1.5-3.5,4.506,4.506,0,0,0-1.419-3.282A5.763,5.763,0,0,0,886.053,59.675Zm-3.227-5.98a1.874,1.874,0,0,1,1.336.556,2.1,2.1,0,0,1,.64,1.474,2.074,2.074,0,0,1-.64,1.418,1.859,1.859,0,0,1-1.363.556,2,2,0,0,1-1.475-.612,2.086,2.086,0,0,1-.584-1.335,2.119,2.119,0,0,1,.557-1.418A2.011,2.011,0,0,1,882.826,53.7Zm-.055,7.926a2.276,2.276,0,0,1,1.557.64,2,2,0,0,1,.668,1.53,2.12,2.12,0,0,1-.668,1.585,2.052,2.052,0,0,1-1.557.64,2.247,2.247,0,0,1-1.586-.668,2.151,2.151,0,0,1,.028-3.087A2.34,2.34,0,0,1,882.771,61.622Zm7.5,13.044h3.615l14.24-25.5h-3.643Zm33.287-23.779h-9.651l-1.613,9.985a7.472,7.472,0,0,1,3.421-.779,5.343,5.343,0,0,1,3.337.918,2.618,2.618,0,0,1,.89,2,2.77,2.77,0,0,1-.723,1.891,3.339,3.339,0,0,1-2.42.918,6.891,6.891,0,0,1-2.781-.64,8.994,8.994,0,0,1-2.226-1.5l-.723,4.506a11.267,11.267,0,0,0,6.258,1.669,7.731,7.731,0,0,0,5.785-2.086,6.484,6.484,0,0,0,1.78-4.645,6.036,6.036,0,0,0-1.7-4.394,6.593,6.593,0,0,0-4.9-1.836,10.342,10.342,0,0,0-1.5.139l.334-2.058h6.424Z" transform="translate(-52.804 -7.15)"/><path class="c" d="M861.62,89.6h-4.34l-1.438-4.478a.275.275,0,0,0-.522,0L853.88,89.6h-4.34a.275.275,0,0,0-.169.492l3.463,2.681-1.441,4.431a.275.275,0,0,0,.261.359.27.27,0,0,0,.161-.053l3.765-2.734,3.764,2.734a.274.274,0,0,0,.422-.307l-1.441-4.431,3.462-2.681a.274.274,0,0,0,.095-.138.27.27,0,0,0,0-.167.274.274,0,0,0-.259-.186Z" transform="translate(-52.738 -13.469)"/><path class="c" d="M881.753,89.6h-4.341l-1.438-4.478a.27.27,0,0,0-.1-.137.274.274,0,0,0-.422.137L874.013,89.6h-4.341a.275.275,0,0,0-.26.186.278.278,0,0,0,0,.168.274.274,0,0,0,.095.138l3.462,2.681-1.441,4.431a.285.285,0,0,0,0,.17.274.274,0,0,0,.1.137.273.273,0,0,0,.323,0l3.764-2.734,3.764,2.734a.276.276,0,0,0,.423-.137.285.285,0,0,0,0-.17l-1.441-4.431,3.462-2.681a.274.274,0,0,0,.091-.306.27.27,0,0,0-.1-.135A.274.274,0,0,0,881.753,89.6Z" transform="translate(-56.294 -13.469)"/><path class="c" d="M901.88,89.6h-4.341L896.1,85.125a.276.276,0,0,0-.1-.137.273.273,0,0,0-.161-.052.277.277,0,0,0-.161.052.279.279,0,0,0-.1.137L894.14,89.6H889.8a.273.273,0,0,0-.259.186.271.271,0,0,0,0,.168.275.275,0,0,0,.095.138l3.463,2.681-1.441,4.431a.274.274,0,0,0,.422.307l3.764-2.734,3.765,2.734a.274.274,0,0,0,.422-.307l-1.441-4.431,3.461-2.681a.274.274,0,0,0,.095-.138.277.277,0,0,0,0-.167.28.28,0,0,0-.1-.135A.276.276,0,0,0,901.88,89.6Z" transform="translate(-59.849 -13.469)"/><path class="c" d="M922.013,89.6h-4.341l-1.438-4.478a.274.274,0,0,0-.521,0L914.273,89.6h-4.341a.272.272,0,0,0-.16.051.274.274,0,0,0-.008.441l3.462,2.681-1.441,4.431a.285.285,0,0,0,0,.17.275.275,0,0,0,.261.189.268.268,0,0,0,.161-.053l3.765-2.734,3.764,2.734a.273.273,0,0,0,.323,0,.268.268,0,0,0,.1-.137.273.273,0,0,0,0-.17l-1.441-4.431,3.461-2.681a.275.275,0,0,0,.1-.138.276.276,0,0,0-.1-.3A.273.273,0,0,0,922.013,89.6Z" transform="translate(-63.404 -13.469)"/><path class="d" d="M941.694,89.6h-4.34l-1.438-4.478a.275.275,0,0,0-.522,0L933.954,89.6h-4.34a.273.273,0,0,0-.26.186.275.275,0,0,0,.091.306l3.463,2.681-1.441,4.431a.274.274,0,0,0,.422.307l3.764-2.734,3.765,2.734a.275.275,0,0,0,.422-.137.273.273,0,0,0,0-.17L938.4,92.775l3.461-2.681a.273.273,0,0,0,.095-.138.274.274,0,0,0-.262-.354Z" transform="translate(-66.881 -13.469)"/><g transform="translate(862.458 71.467)"><path class="c" d="M941.694,89.6h-4.341l-1.438-4.478a.274.274,0,0,0-.261-.189.272.272,0,0,0-.16.052.276.276,0,0,0-.1.137L933.954,89.6h-4.341a.273.273,0,0,0-.259.186.275.275,0,0,0,.091.306l3.463,2.681-1.441,4.431a.274.274,0,0,0,.422.307l3.764-2.734,3.765,2.734a.275.275,0,0,0,.422-.137.273.273,0,0,0,0-.17L938.4,92.775l3.461-2.681a.273.273,0,0,0,.095-.138.274.274,0,0,0-.262-.354Z" transform="translate(-929.339 -84.936)"/></g></g></svg>